<!DOCTYPE svg PUBLIC "-//W3C//DTD SVG 1.1//EN" "http://www.w3.org/Graphics/SVG/1.1/DTD/svg11.dtd">
<!-- Uploaded to: SVG Repo, www.svgrepo.com, Transformed by: SVG Repo Mixer Tools -->
<svg fill="#f05a31" height="800px" width="800px" version="1.1" id="Layer_1" xmlns="http://www.w3.org/2000/svg" xmlns:xlink="http://www.w3.org/1999/xlink" viewBox="0 0 299.812 299.812" xml:space="preserve">
<g id="SVGRepo_bgCarrier" stroke-width="0"/>
<g id="SVGRepo_tracerCarrier" stroke-linecap="round" stroke-linejoin="round"/>
<g id="SVGRepo_iconCarrier"> <g> <g> <g> <path d="M85.741,137.915c1.177,0.983,2.598,1.459,4.013,1.459c1.79,0,3.568-0.764,4.783-2.241 c2.679-3.199,5.333-6.467,7.888-9.853c2.078-2.754,1.527-6.679-1.233-8.758c-2.748-2.085-6.686-1.521-8.764,1.227 c-2.404,3.218-4.927,6.323-7.468,9.352C82.742,131.756,83.087,135.699,85.741,137.915z"/> <path d="M107.688,108.299c0.87,0.432,1.784,0.62,2.692,0.62c2.335,0,4.576-1.315,5.634-3.568 c1.928-4.019,3.543-8.144,4.814-12.263c1.027-3.293-0.826-6.811-4.119-7.831c-3.312-1.033-6.811,0.833-7.838,4.125 c-1.102,3.537-2.491,7.099-4.144,10.579C103.238,103.079,104.565,106.822,107.688,108.299z"/> <path d="M62.973,166.931c1.077,0.726,2.316,1.077,3.518,1.077c2.003,0,3.981-0.958,5.171-2.742 c1.959-2.886,4.269-5.96,7.055-9.428c2.185-2.673,1.778-6.623-0.92-8.795c-2.692-2.197-6.629-1.765-8.795,0.92 c-3.03,3.743-5.54,7.099-7.694,10.26C59.367,161.084,60.112,164.977,62.973,166.931z"/> <path d="M158.883,16.922c0.77,0,1.552-0.144,2.316-0.426c3.474-1.383,7.08-2.466,10.736-3.23 c3.387-0.714,5.546-4.025,4.845-7.412c-0.714-3.387-4.069-5.559-7.406-4.839c-4.357,0.901-8.67,2.185-12.789,3.825 c-3.224,1.271-4.795,4.914-3.524,8.132C154.044,15.432,156.404,16.922,158.883,16.922z"/> <path d="M230.015,35.139c1.202,1.884,3.23,2.911,5.296,2.911c1.133,0,2.304-0.313,3.33-0.964 c2.923-1.853,3.794-5.722,1.947-8.639c-2.454-3.881-5.321-7.462-8.514-10.654c-2.454-2.448-6.398-2.448-8.852,0 c-2.454,2.448-2.454,6.404,0,8.852C225.758,29.186,228.049,32.046,230.015,35.139z"/> <path d="M237.746,55.697c0.601,3.587,0.914,7.355,0.914,11.18v0.3c0,3.468,2.798,6.11,6.26,6.11c3.456,0,6.26-2.948,6.26-6.41 c0-4.539-0.369-8.996-1.102-13.284c-0.563-3.405-3.775-5.603-7.218-5.114C239.455,49.049,237.17,52.285,237.746,55.697z"/> <path d="M126.112,37.674c1.127,0.826,2.429,1.221,3.725,1.221c1.928,0,3.806-0.87,5.027-2.523 c2.179-2.942,4.682-5.703,7.424-8.201c2.554-2.323,2.742-6.285,0.413-8.839c-2.322-2.554-6.279-2.736-8.839-0.413 c-3.349,3.055-6.391,6.423-9.058,10.003C122.75,31.696,123.338,35.615,126.112,37.674z"/> <path d="M54.992,202.312c3.443-0.056,6.216-2.898,6.16-6.366l-0.006-1.064c0.006-3.261,0.369-6.398,1.108-9.584 c0.789-3.368-1.308-6.729-4.676-7.512c-3.362-0.82-6.723,1.302-7.512,4.676c-0.945,4.056-1.434,8.226-1.434,12.407v1.271 c0.063,3.418,2.848,6.16,6.26,6.16C54.929,202.3,54.96,202.3,54.992,202.312z"/> <path d="M118.493,73.225c3.462,0,6.26-2.886,6.279-6.341c0-3.631,0.382-7.23,1.121-10.723c0.726-3.387-1.44-6.711-4.814-7.431 c-3.412-0.776-6.729,1.44-7.437,4.814c-0.933,4.338-1.409,8.827-1.409,13.509C112.233,70.508,115.031,73.225,118.493,73.225z"/> <path d="M194.195,12.478c3.731,0.538,7.331,1.427,10.717,2.629c0.695,0.244,1.408,0.369,2.103,0.369 c2.567,0,4.983-1.596,5.891-4.169c1.164-3.255-0.532-6.83-3.787-8c-4.169-1.484-8.583-2.573-13.133-3.224 c-3.424-0.57-6.604,1.865-7.093,5.302C188.405,8.809,190.777,11.977,194.195,12.478z"/> <path d="M244.92,159.431c-3.462,0-6.26,2.798-6.26,6.26v12.313c0,3.462,2.798,6.26,6.26,6.26c3.456,0,6.26-2.798,6.26-6.26 v-12.313C251.18,162.229,248.382,159.431,244.92,159.431z"/> <path d="M208.637,262.79c-2.805,2.623-5.797,5.096-8.883,7.337c-2.811,2.034-3.424,5.953-1.383,8.739 c1.227,1.684,3.13,2.579,5.071,2.579c1.277,0,2.56-0.388,3.675-1.196c3.499-2.542,6.886-5.333,10.066-8.313 c2.523-2.36,2.661-6.329,0.3-8.845C215.116,260.561,211.147,260.43,208.637,262.79z"/> <path d="M67.599,229.875c-1.377-3.593-2.56-7.312-3.487-11.024c-0.845-3.368-4.232-5.39-7.6-4.545s-5.39,4.244-4.545,7.593 c1.052,4.194,2.372,8.376,3.925,12.426c0.958,2.504,3.343,4.031,5.853,4.031c0.739,0,1.496-0.138,2.235-0.401 C67.211,236.73,68.826,233.111,67.599,229.875z"/> <path d="M245.114,196.378c-3.456-0.219-6.467,2.297-6.742,5.747c-0.307,3.768-0.87,7.587-1.665,11.349 c-0.726,3.387,1.44,6.711,4.826,7.431c0.426,0.088,0.883,0.131,1.302,0.131c2.892,0,5.496-2.016,6.129-4.97 c0.908-4.269,1.534-8.633,1.891-12.939C251.13,199.67,248.563,196.659,245.114,196.378z"/> <path d="M244.92,122.478c-3.462,0-6.26,2.792-6.26,6.26v12.332c0,3.462,2.798,6.26,6.26,6.26c3.456,0,6.26-2.811,6.26-6.26 v-12.332C251.18,125.27,248.382,122.478,244.92,122.478z"/> <path d="M244.92,85.551c-3.462,0-6.26,2.798-6.26,6.26v12.313c0,3.468,2.798,6.26,6.26,6.26c3.456,0,6.26-2.798,6.26-6.26V91.811 C251.18,88.349,248.382,85.551,244.92,85.551z"/> <path d="M237.546,232.304c-3.111-1.509-6.848-0.238-8.376,2.861c-1.671,3.412-3.593,6.78-5.703,10.016 c-1.897,2.886-1.083,6.773,1.815,8.658c1.058,0.689,2.241,1.027,3.418,1.027c2.041,0,4.05-1.002,5.246-2.836 c2.391-3.656,4.551-7.474,6.46-11.349C241.928,237.581,240.651,233.825,237.546,232.304z"/> <path d="M78.36,250.195c-1.978-2.823-5.872-3.524-8.72-1.552c-2.836,1.991-3.518,5.891-1.552,8.727 c2.498,3.568,5.221,6.999,8.125,10.235c1.24,1.371,2.942,2.066,4.651,2.066c1.496,0,2.992-0.538,4.207-1.621 c2.567-2.323,2.767-6.273,0.457-8.852C82.955,256.361,80.558,253.337,78.36,250.195z"/> <path d="M112.897,279.592c-3.405-1.59-6.761-3.449-9.985-5.534c-2.898-1.878-6.773-1.045-8.658,1.859 c-1.878,2.905-1.045,6.773,1.859,8.658c3.7,2.391,7.562,4.545,11.487,6.366c0.858,0.407,1.747,0.595,2.642,0.595 c2.36,0,4.607-1.34,5.678-3.625C117.385,284.775,116.027,281.044,112.897,279.592z"/> <path d="M179.641,281.207c-3.518,1.409-7.199,2.598-10.905,3.524c-3.368,0.833-5.396,4.244-4.551,7.593 c0.714,2.836,3.268,4.733,6.066,4.733c0.507,0,1.014-0.063,1.527-0.182c4.244-1.064,8.438-2.423,12.482-4.025 c3.211-1.271,4.783-4.908,3.512-8.132C186.489,281.507,182.846,279.93,179.641,281.207z"/> <path d="M146.043,287.292c-3.825-0.094-7.643-0.419-11.381-1.02c-3.399-0.57-6.629,1.79-7.174,5.196 c-0.545,3.412,1.778,6.629,5.196,7.168c4.288,0.682,8.689,1.07,13.077,1.177c0.038,0,0.094,0,0.131,0 c3.399,0,6.191-2.717,6.279-6.122C152.228,290.234,149.499,287.373,146.043,287.292z"/> <path d="M92.614,158.179c-11.969,13.791-19.882,22.905-19.882,35.231c0,44.114,34.399,81.38,75.12,81.38 s75.12-37.266,75.12-81.38V68.21c0-24.977-18.843-43.82-43.82-43.82c-23.168,0-37.56,16.802-37.56,43.82 c0,34.749-19.988,57.179-37.61,76.96c-2.404,2.711-4.745,5.34-6.961,7.919L92.614,158.179z M106.512,161.228 c2.166-2.504,4.451-5.077,6.811-7.725c18.185-20.395,40.79-45.773,40.79-85.292c0-9.409,2.448-31.3,25.04-31.3 c18.129,0,31.3,13.171,31.288,31.281v125.2c0,37.328-28.665,68.86-62.6,68.86c-33.935,0-62.6-31.532-62.6-68.86 c0-7.637,6.329-14.924,16.821-27.018L106.512,161.228z"/> <path d="M141.592,243.503c17.259,0,31.3-14.041,31.3-31.3c0-17.265-14.041-31.313-31.3-31.313c-17.259,0-31.3,14.047-31.3,31.313 C110.293,229.462,124.334,243.503,141.592,243.503z M141.592,193.41c10.354,0,18.78,8.438,18.78,18.792 c0,10.354-8.426,18.78-18.78,18.78c-10.354,0-18.78-8.426-18.78-18.78C122.813,201.849,131.238,193.41,141.592,193.41z"/> </g> </g> </g> </g>
</svg>